<svg width="146" height="1024" viewBox="0 0 146 1024" fill="none" xmlns="http://www.w3.org/2000/svg">
<rect x="108.016" y="15.0002" width="9" height="24" transform="rotate(90 108.016 15.0002)" fill="white"/>
<rect x="125.016" y="47.0002" width="9" height="24" transform="rotate(90 125.016 47.0002)" fill="white"/>
<rect x="125.016" y="0.00012207" width="9" height="26" transform="rotate(90 125.016 0.00012207)" fill="white"/>
<rect x="108.016" y="32.0002" width="9" height="24" transform="rotate(90 108.016 32.0002)" fill="white"/>
<rect x="108.016" y="80.0002" width="9" height="24" transform="rotate(90 108.016 80.0002)" fill="white"/>
<rect x="93" y="85.7961" width="9" height="49.74" transform="rotate(-179.976 93 85.7961)" fill="white"/>
<rect x="93.0078" y="19.6516" width="9" height="19.342" transform="rotate(-179.976 93.0078 19.6516)" fill="white"/>
<rect x="108.008" y="17.6506" width="9" height="17.6468" transform="rotate(-179.976 108.008 17.6506)" fill="white"/>
<rect x="109.006" y="56.0227" width="9" height="24.0192" transform="rotate(-179.976 109.006 56.0227)" fill="white"/>
<rect x="124.992" y="55.9597" width="9" height="55.7831" transform="rotate(-179.976 124.992 55.9597)" fill="white"/>
<rect x="108.016" y="80.0007" width="9" height="24" transform="rotate(90 108.016 80.0007)" fill="white"/>
<rect x="125.016" y="112.001" width="9" height="24" transform="rotate(90 125.016 112.001)" fill="white"/>
<rect x="125.016" y="65.0007" width="9" height="26" transform="rotate(90 125.016 65.0007)" fill="white"/>
<rect x="108.016" y="97.0007" width="9" height="24" transform="rotate(90 108.016 97.0007)" fill="white"/>
<rect x="108.016" y="145.001" width="9" height="24" transform="rotate(90 108.016 145.001)" fill="white"/>
<rect x="93" y="150.797" width="9" height="49.74" transform="rotate(-179.976 93 150.797)" fill="white"/>
<rect x="93.0078" y="84.6521" width="9" height="17.6468" transform="rotate(-179.976 93.0078 84.6521)" fill="white"/>
<rect x="108.008" y="82.6511" width="9" height="17.6468" transform="rotate(-179.976 108.008 82.6511)" fill="white"/>
<rect x="109.006" y="121.023" width="9" height="24.0192" transform="rotate(-179.976 109.006 121.023)" fill="white"/>
<rect x="124.99" y="120.958" width="9" height="55.5753" transform="rotate(-179.976 124.99 120.958)" fill="white"/>
<rect x="108.016" y="145.001" width="9" height="24" transform="rotate(90 108.016 145.001)" fill="white"/>
<rect x="125.016" y="177.001" width="9" height="24" transform="rotate(90 125.016 177.001)" fill="white"/>
<rect x="125.016" y="130.001" width="9" height="26" transform="rotate(90 125.016 130.001)" fill="white"/>
<rect x="108.016" y="162.001" width="9" height="24" transform="rotate(90 108.016 162.001)" fill="white"/>
<rect x="108.016" y="210.001" width="9" height="24" transform="rotate(90 108.016 210.001)" fill="white"/>
<rect x="93" y="215.797" width="9" height="49.74" transform="rotate(-179.976 93 215.797)" fill="white"/>
<rect x="93.0078" y="149.652" width="9" height="17.6468" transform="rotate(-179.976 93.0078 149.652)" fill="white"/>
<rect x="108.008" y="147.651" width="9" height="17.6468" transform="rotate(-179.976 108.008 147.651)" fill="white"/>
<rect x="109.006" y="186.023" width="9" height="24.0192" transform="rotate(-179.976 109.006 186.023)" fill="white"/>
<rect x="124.99" y="185.958" width="9" height="55.5753" transform="rotate(-179.976 124.99 185.958)" fill="white"/>
<rect x="108.016" y="210.001" width="9" height="24" transform="rotate(90 108.016 210.001)" fill="white"/>
<rect x="125.016" y="242.001" width="9" height="24" transform="rotate(90 125.016 242.001)" fill="white"/>
<rect x="125.016" y="195.001" width="9" height="26" transform="rotate(90 125.016 195.001)" fill="white"/>
<rect x="108.016" y="227.001" width="9" height="24" transform="rotate(90 108.016 227.001)" fill="white"/>
<rect x="108.016" y="275.001" width="9" height="24" transform="rotate(90 108.016 275.001)" fill="white"/>
<rect x="93" y="280.797" width="9" height="49.74" transform="rotate(-179.976 93 280.797)" fill="white"/>
<rect x="93.0078" y="214.652" width="9" height="17.6468" transform="rotate(-179.976 93.0078 214.652)" fill="white"/>
<rect x="108.008" y="212.651" width="9" height="17.6468" transform="rotate(-179.976 108.008 212.651)" fill="white"/>
<rect x="109.006" y="251.023" width="9" height="24.0192" transform="rotate(-179.976 109.006 251.023)" fill="white"/>
<rect x="124.99" y="250.958" width="9" height="55.5753" transform="rotate(-179.976 124.99 250.958)" fill="white"/>
<rect x="108.016" y="275" width="9" height="24" transform="rotate(90 108.016 275)" fill="white"/>
<rect x="125.016" y="307" width="9" height="24" transform="rotate(90 125.016 307)" fill="white"/>
<rect x="125.016" y="260" width="9" height="26" transform="rotate(90 125.016 260)" fill="white"/>
<rect x="108.016" y="292" width="9" height="24" transform="rotate(90 108.016 292)" fill="white"/>
<rect x="108.016" y="340" width="9" height="24" transform="rotate(90 108.016 340)" fill="white"/>
<rect x="93" y="345.796" width="9" height="49.74" transform="rotate(-179.976 93 345.796)" fill="white"/>
<rect x="93.0078" y="279.652" width="9" height="17.6468" transform="rotate(-179.976 93.0078 279.652)" fill="white"/>
<rect x="108.008" y="277.651" width="9" height="17.6468" transform="rotate(-179.976 108.008 277.651)" fill="white"/>
<rect x="109.006" y="316.023" width="9" height="24.0192" transform="rotate(-179.976 109.006 316.023)" fill="white"/>
<rect x="124.99" y="315.958" width="9" height="55.5753" transform="rotate(-179.976 124.99 315.958)" fill="white"/>
<rect x="108.016" y="340" width="9" height="24" transform="rotate(90 108.016 340)" fill="white"/>
<rect x="125.016" y="372" width="9" height="24" transform="rotate(90 125.016 372)" fill="white"/>
<rect x="125.016" y="325" width="9" height="26" transform="rotate(90 125.016 325)" fill="white"/>
<rect x="108.016" y="357" width="9" height="24" transform="rotate(90 108.016 357)" fill="white"/>
<rect x="108.016" y="405" width="9" height="24" transform="rotate(90 108.016 405)" fill="white"/>
<rect x="93" y="410.796" width="9" height="49.74" transform="rotate(-179.976 93 410.796)" fill="white"/>
<rect x="93.0078" y="344.652" width="9" height="17.6468" transform="rotate(-179.976 93.0078 344.652)" fill="white"/>
<rect x="108.008" y="342.651" width="9" height="17.6468" transform="rotate(-179.976 108.008 342.651)" fill="white"/>
<rect x="109.006" y="381.023" width="9" height="24.0192" transform="rotate(-179.976 109.006 381.023)" fill="white"/>
<rect x="124.99" y="380.958" width="9" height="55.5753" transform="rotate(-179.976 124.99 380.958)" fill="white"/>
<rect x="108.016" y="405.001" width="9" height="24" transform="rotate(90 108.016 405.001)" fill="white"/>
<rect x="125.016" y="437.001" width="9" height="24" transform="rotate(90 125.016 437.001)" fill="white"/>
<rect x="125.016" y="390.001" width="9" height="26" transform="rotate(90 125.016 390.001)" fill="white"/>
<rect x="108.016" y="422.001" width="9" height="24" transform="rotate(90 108.016 422.001)" fill="white"/>
<rect x="108.016" y="470.001" width="9" height="24" transform="rotate(90 108.016 470.001)" fill="white"/>
<rect x="93" y="475.797" width="9" height="49.74" transform="rotate(-179.976 93 475.797)" fill="white"/>
<rect x="93.0078" y="409.652" width="9" height="17.6468" transform="rotate(-179.976 93.0078 409.652)" fill="white"/>
<rect x="108.008" y="407.651" width="9" height="17.6468" transform="rotate(-179.976 108.008 407.651)" fill="white"/>
<rect x="109.006" y="446.023" width="9" height="24.0192" transform="rotate(-179.976 109.006 446.023)" fill="white"/>
<rect x="124.99" y="445.958" width="9" height="55.5753" transform="rotate(-179.976 124.99 445.958)" fill="white"/>
<rect x="108.016" y="470.001" width="9" height="24" transform="rotate(90 108.016 470.001)" fill="white"/>
<rect x="125.016" y="502.001" width="9" height="24" transform="rotate(90 125.016 502.001)" fill="white"/>
<rect x="125.016" y="455.001" width="9" height="26" transform="rotate(90 125.016 455.001)" fill="white"/>
<rect x="108.016" y="487.001" width="9" height="24" transform="rotate(90 108.016 487.001)" fill="white"/>
<rect x="108.016" y="535.001" width="9" height="24" transform="rotate(90 108.016 535.001)" fill="white"/>
<rect x="93" y="540.797" width="9" height="49.74" transform="rotate(-179.976 93 540.797)" fill="white"/>
<rect x="93.0078" y="474.652" width="9" height="17.6468" transform="rotate(-179.976 93.0078 474.652)" fill="white"/>
<rect x="108.008" y="472.651" width="9" height="17.6468" transform="rotate(-179.976 108.008 472.651)" fill="white"/>
<rect x="109.006" y="511.023" width="9" height="24.0192" transform="rotate(-179.976 109.006 511.023)" fill="white"/>
<rect x="124.99" y="510.958" width="9" height="55.5753" transform="rotate(-179.976 124.99 510.958)" fill="white"/>
<rect x="108.016" y="535.001" width="9" height="24" transform="rotate(90 108.016 535.001)" fill="white"/>
<rect x="125.016" y="567.001" width="9" height="24" transform="rotate(90 125.016 567.001)" fill="white"/>
<rect x="125.016" y="520.001" width="9" height="26" transform="rotate(90 125.016 520.001)" fill="white"/>
<rect x="108.016" y="552.001" width="9" height="24" transform="rotate(90 108.016 552.001)" fill="white"/>
<rect x="108.016" y="600.001" width="9" height="24" transform="rotate(90 108.016 600.001)" fill="white"/>
<rect x="93" y="605.797" width="9" height="49.74" transform="rotate(-179.976 93 605.797)" fill="white"/>
<rect x="93.0078" y="539.652" width="9" height="17.6468" transform="rotate(-179.976 93.0078 539.652)" fill="white"/>
<rect x="108.008" y="537.651" width="9" height="17.6468" transform="rotate(-179.976 108.008 537.651)" fill="white"/>
<rect x="109.006" y="576.023" width="9" height="24.0192" transform="rotate(-179.976 109.006 576.023)" fill="white"/>
<rect x="124.99" y="575.958" width="9" height="55.5753" transform="rotate(-179.976 124.99 575.958)" fill="white"/>
<rect x="108.016" y="600.001" width="9" height="24" transform="rotate(90 108.016 600.001)" fill="white"/>
<rect x="125.016" y="632.001" width="9" height="24" transform="rotate(90 125.016 632.001)" fill="white"/>
<rect x="125.016" y="585.001" width="9" height="26" transform="rotate(90 125.016 585.001)" fill="white"/>
<rect x="108.016" y="617.001" width="9" height="24" transform="rotate(90 108.016 617.001)" fill="white"/>
<rect x="108.016" y="665.001" width="9" height="24" transform="rotate(90 108.016 665.001)" fill="white"/>
<rect x="93" y="670.797" width="9" height="49.74" transform="rotate(-179.976 93 670.797)" fill="white"/>
<rect x="93.0078" y="604.652" width="9" height="17.6468" transform="rotate(-179.976 93.0078 604.652)" fill="white"/>
<rect x="108.008" y="602.651" width="9" height="17.6468" transform="rotate(-179.976 108.008 602.651)" fill="white"/>
<rect x="109.006" y="641.023" width="9" height="24.0192" transform="rotate(-179.976 109.006 641.023)" fill="white"/>
<rect x="124.99" y="640.958" width="9" height="55.5753" transform="rotate(-179.976 124.99 640.958)" fill="white"/>
<rect x="108.016" y="665.001" width="9" height="24" transform="rotate(90 108.016 665.001)" fill="white"/>
<rect x="125.016" y="697.001" width="9" height="24" transform="rotate(90 125.016 697.001)" fill="white"/>
<rect x="125.016" y="650.001" width="9" height="26" transform="rotate(90 125.016 650.001)" fill="white"/>
<rect x="108.016" y="682.001" width="9" height="24" transform="rotate(90 108.016 682.001)" fill="white"/>
<rect x="108.016" y="730.001" width="9" height="24" transform="rotate(90 108.016 730.001)" fill="white"/>
<rect x="93" y="735.797" width="9" height="49.74" transform="rotate(-179.976 93 735.797)" fill="white"/>
<rect x="93.0078" y="669.652" width="9" height="17.6468" transform="rotate(-179.976 93.0078 669.652)" fill="white"/>
<rect x="108.008" y="667.651" width="9" height="17.6468" transform="rotate(-179.976 108.008 667.651)" fill="white"/>
<rect x="109.006" y="706.023" width="9" height="24.0192" transform="rotate(-179.976 109.006 706.023)" fill="white"/>
<rect x="124.99" y="705.958" width="9" height="55.5753" transform="rotate(-179.976 124.99 705.958)" fill="white"/>
<rect x="108.016" y="730.001" width="9" height="24" transform="rotate(90 108.016 730.001)" fill="white"/>
<rect x="125.016" y="762.001" width="9" height="24" transform="rotate(90 125.016 762.001)" fill="white"/>
<rect x="125.016" y="715.001" width="9" height="26" transform="rotate(90 125.016 715.001)" fill="white"/>
<rect x="108.016" y="747.001" width="9" height="24" transform="rotate(90 108.016 747.001)" fill="white"/>
<rect x="108.016" y="795.001" width="9" height="24" transform="rotate(90 108.016 795.001)" fill="white"/>
<rect x="93" y="800.797" width="9" height="49.74" transform="rotate(-179.976 93 800.797)" fill="white"/>
<rect x="93.0078" y="734.652" width="9" height="17.6468" transform="rotate(-179.976 93.0078 734.652)" fill="white"/>
<rect x="108.008" y="732.651" width="9" height="17.6468" transform="rotate(-179.976 108.008 732.651)" fill="white"/>
<rect x="109.006" y="771.023" width="9" height="24.0192" transform="rotate(-179.976 109.006 771.023)" fill="white"/>
<rect x="124.99" y="770.959" width="9" height="55.5753" transform="rotate(-179.976 124.99 770.959)" fill="white"/>
<rect x="108.016" y="795.001" width="9" height="24" transform="rotate(90 108.016 795.001)" fill="white"/>
<rect x="125.016" y="827.001" width="9" height="24" transform="rotate(90 125.016 827.001)" fill="white"/>
<rect x="125.016" y="780.001" width="9" height="26" transform="rotate(90 125.016 780.001)" fill="white"/>
<rect x="108.016" y="812.001" width="9" height="24" transform="rotate(90 108.016 812.001)" fill="white"/>
<rect x="108.016" y="860.001" width="9" height="24" transform="rotate(90 108.016 860.001)" fill="white"/>
<rect x="93" y="865.797" width="9" height="49.74" transform="rotate(-179.976 93 865.797)" fill="white"/>
<rect x="93.0078" y="799.652" width="9" height="17.6468" transform="rotate(-179.976 93.0078 799.652)" fill="white"/>
<rect x="108.008" y="797.651" width="9" height="17.6468" transform="rotate(-179.976 108.008 797.651)" fill="white"/>
<rect x="109.006" y="836.023" width="9" height="24.0192" transform="rotate(-179.976 109.006 836.023)" fill="white"/>
<rect x="124.99" y="835.959" width="9" height="55.5753" transform="rotate(-179.976 124.99 835.959)" fill="white"/>
<rect x="108.016" y="860.001" width="9" height="24" transform="rotate(90 108.016 860.001)" fill="white"/>
<rect x="125.016" y="892.001" width="9" height="24" transform="rotate(90 125.016 892.001)" fill="white"/>
<rect x="125.016" y="845.001" width="9" height="26" transform="rotate(90 125.016 845.001)" fill="white"/>
<rect x="108.016" y="877.001" width="9" height="24" transform="rotate(90 108.016 877.001)" fill="white"/>
<rect x="108.016" y="925.001" width="9" height="24" transform="rotate(90 108.016 925.001)" fill="white"/>
<rect x="93" y="930.797" width="9" height="49.74" transform="rotate(-179.976 93 930.797)" fill="white"/>
<rect x="93.0078" y="864.652" width="9" height="17.6468" transform="rotate(-179.976 93.0078 864.652)" fill="white"/>
<rect x="108.008" y="862.651" width="9" height="17.6468" transform="rotate(-179.976 108.008 862.651)" fill="white"/>
<rect x="109.006" y="901.023" width="9" height="24.0192" transform="rotate(-179.976 109.006 901.023)" fill="white"/>
<rect x="124.99" y="900.959" width="9" height="55.5753" transform="rotate(-179.976 124.99 900.959)" fill="white"/>
<rect x="108.016" y="925.001" width="9" height="24" transform="rotate(90 108.016 925.001)" fill="white"/>
<rect x="125.016" y="957.001" width="9" height="24" transform="rotate(90 125.016 957.001)" fill="white"/>
<rect x="125.016" y="910.001" width="9" height="26" transform="rotate(90 125.016 910.001)" fill="white"/>
<rect x="108.016" y="942.001" width="9" height="24" transform="rotate(90 108.016 942.001)" fill="white"/>
<rect x="108.016" y="990.001" width="9" height="24" transform="rotate(90 108.016 990.001)" fill="white"/>
<rect x="93" y="995.797" width="9" height="49.74" transform="rotate(-179.976 93 995.797)" fill="white"/>
<rect x="93.0078" y="929.652" width="9" height="17.6468" transform="rotate(-179.976 93.0078 929.652)" fill="white"/>
<rect x="108.008" y="927.651" width="9" height="17.6468" transform="rotate(-179.976 108.008 927.651)" fill="white"/>
<rect x="109.006" y="966.023" width="9" height="24.0192" transform="rotate(-179.976 109.006 966.023)" fill="white"/>
<rect x="124.99" y="965.959" width="9" height="55.5753" transform="rotate(-179.976 124.99 965.959)" fill="white"/>
<rect x="108.016" y="990.001" width="9" height="24" transform="rotate(90 108.016 990.001)" fill="white"/>
<rect x="125.016" y="1022" width="9" height="24" transform="rotate(90 125.016 1022)" fill="white"/>
<rect x="125.016" y="975.001" width="9" height="26" transform="rotate(90 125.016 975.001)" fill="white"/>
<rect x="108.016" y="1007" width="9" height="24" transform="rotate(90 108.016 1007)" fill="white"/>
<rect x="93" y="1060.8" width="9" height="49.74" transform="rotate(-179.976 93 1060.8)" fill="white"/>
<rect x="93.0078" y="994.652" width="9" height="17.6468" transform="rotate(-179.976 93.0078 994.652)" fill="white"/>
<rect x="108.008" y="992.651" width="9" height="17.6468" transform="rotate(-179.976 108.008 992.651)" fill="white"/>
<rect x="109.006" y="1031.02" width="9" height="24.0192" transform="rotate(-179.976 109.006 1031.02)" fill="white"/>
<rect x="124.99" y="1030.96" width="9" height="55.5753" transform="rotate(-179.976 124.99 1030.96)" fill="white"/>
<rect y="715" width="146" height="309" fill="url(#paint0_linear_244_343)"/>
<rect x="146" y="307" width="146" height="309" transform="rotate(180 146 307)" fill="url(#paint1_linear_244_343)"/>
<defs>
<linearGradient id="paint0_linear_244_343" x1="97.5" y1="1024" x2="108.272" y2="715.271" gradientUnits="userSpaceOnUse">
<stop stop-color="#D61F3B"/>
<stop offset="1" stop-color="#DC213E" stop-opacity="0"/>
</linearGradient>
<linearGradient id="paint1_linear_244_343" x1="243.5" y1="616" x2="254.272" y2="307.271" gradientUnits="userSpaceOnUse">
<stop stop-color="#D61F3B"/>
<stop offset="1" stop-color="#DC213E" stop-opacity="0"/>
</linearGradient>
</defs>
</svg>
