<svg width="130" height="93" viewBox="0 0 130 93" fill="none" xmlns="http://www.w3.org/2000/svg">
<rect x="48.2236" y="27.4526" width="6.82682" height="5.6648" fill="white"/>
<path d="M51.7098 20.6255C44.0405 25.2154 42.9463 34.1097 43.3579 37.9104V38.7093L41.9053 40.0165H37.7656L40.3075 37.9104C38.7969 26.5227 47.2796 21.5938 51.7098 20.6255Z" fill="white"/>
<path d="M51.7824 20.6255C59.4517 25.2326 60.5459 34.1602 60.1343 37.9751V38.777L61.5869 40.0892H65.7266L63.1847 37.9751C64.6953 26.5448 56.2126 21.5975 51.7824 20.6255Z" fill="white"/>
<rect x="43.0674" y="37.7651" width="17.4302" height="1.01676" fill="white"/>
<rect x="43.6484" y="38.7822" width="2.17877" height="9.29609" fill="white"/>
<rect x="43.5029" y="47.6421" width="2.61453" height="0.871508" fill="white"/>
<rect x="43.2119" y="47.9331" width="3.19553" height="0.871508" fill="white"/>
<rect x="57.5918" y="38.6367" width="2.17877" height="9.29609" fill="white"/>
<rect x="57.4473" y="47.4971" width="2.61453" height="0.871508" fill="white"/>
<rect x="57.1562" y="47.7876" width="3.19553" height="0.871508" fill="white"/>
<rect x="44.374" y="44.1562" width="15.1061" height="1.30726" fill="white"/>
<rect x="43.0674" y="44.1562" width="1.16201" height="0.726257" fill="white"/>
<rect x="43.3574" y="44.7373" width="0.726257" height="0.290503" fill="white"/>
<rect x="43.5029" y="45.0278" width="0.726257" height="0.290503" fill="white"/>
<rect x="59.4805" y="44.1562" width="0.871508" height="0.726257" fill="white"/>
<rect x="59.1904" y="44.3013" width="0.871508" height="0.871508" fill="white"/>
<rect x="58.8994" y="44.4468" width="1.01676" height="0.871508" fill="white"/>
<path d="M10.9303 49.6956C11.0514 46.4516 11.0998 43.365 11.0756 40.4358C11.0756 37.4823 10.9788 34.541 10.7851 31.6118C10.6156 28.6825 10.3493 25.6323 9.98621 22.4609L18.8102 21.4079C18.8829 23.8287 18.895 26.1406 18.8465 28.3436C18.8223 30.5224 18.7376 32.6769 18.5924 34.8073C18.4471 36.9377 18.2655 39.1285 18.0477 41.3799C17.8298 43.6313 17.5635 46.0401 17.2488 48.6062L10.9303 49.6956ZM17.2488 48.6062L17.1035 39.8185C17.394 38.4386 17.8661 36.9982 18.5197 35.4972C19.1976 33.9963 20.0328 32.5196 21.0253 31.0671C22.0421 29.6146 23.192 28.271 24.475 27.0364C25.7581 25.7775 27.1501 24.7002 28.651 23.8045C30.1762 22.9088 31.7981 22.2794 33.5169 21.9162L33.8438 29.5783C31.7376 29.7719 29.7525 30.3166 27.8884 31.2123C26.0486 32.0838 24.3903 33.3185 22.9136 34.9162C21.4369 36.514 20.2022 38.4507 19.2097 40.7263C18.2413 43.0019 17.5877 45.6285 17.2488 48.6062ZM25.5281 49.1509C25.4797 47.7952 25.286 46.5 24.9471 45.2654C24.6082 44.0308 24.1724 42.9172 23.6398 41.9246C23.1073 40.9079 22.4899 40.0606 21.7879 39.3827C21.0858 38.7049 20.3354 38.257 19.5365 38.0391L22.0421 33.8269C23.2041 34.19 24.4266 34.7105 25.7097 35.3883C26.9927 36.0419 28.2153 36.9134 29.3773 38.0028C30.5393 39.0922 31.5681 40.46 32.4639 42.1062C33.3596 43.7282 34.0132 45.7012 34.4248 48.0252L25.5281 49.1509Z" fill="white"/>
<path d="M82.2488 49.5503C80.4574 49.5503 78.557 49.393 76.5477 49.0783C74.5384 48.7393 72.5049 48.2794 70.4472 47.6984L71.3913 41.6341C72.5291 42.1667 73.6064 42.6388 74.6231 43.0503C75.6641 43.4377 76.6688 43.7403 77.6371 43.9581C78.6055 44.1518 79.5496 44.2486 80.4695 44.2486C81.2926 44.2486 82.0068 44.0792 82.612 43.7403C83.2414 43.4013 83.7377 42.9535 84.1008 42.3967C84.4639 41.8157 84.6455 41.1984 84.6455 40.5447C84.6455 39.8185 84.4155 39.1891 83.9555 38.6565C83.4956 38.0997 82.8904 37.6034 82.1399 37.1676C81.3894 36.7319 80.5663 36.3203 79.6706 35.933C78.7749 35.5215 77.8671 35.0978 76.9472 34.6621C76.0515 34.2021 75.2284 33.6937 74.4779 33.1369C73.7274 32.5559 73.1222 31.8902 72.6623 31.1397C72.2023 30.3892 71.9723 29.4935 71.9723 28.4526C71.9723 27.1937 72.2749 26.1164 72.8801 25.2207C73.4853 24.3008 74.2963 23.5503 75.3131 22.9693C76.3541 22.3883 77.504 21.9647 78.7628 21.6984C80.0459 21.4079 81.3531 21.2626 82.6846 21.2626C84.4034 21.2626 86.0617 21.4805 87.6595 21.9162C89.2572 22.3278 90.5645 22.9209 91.5812 23.6956L90.3829 27.6174C89.3177 26.9637 88.2768 26.4432 87.26 26.0559C86.2433 25.6686 85.2144 25.4749 84.1734 25.4749C82.963 25.4749 81.9947 25.7533 81.2684 26.3101C80.5663 26.8669 80.2032 27.6174 80.179 28.5615C80.1548 29.5298 80.3727 30.3408 80.8326 30.9945C81.3168 31.6239 81.9462 32.1686 82.7209 32.6285C83.5198 33.0643 84.3913 33.4637 85.3354 33.8269C86.3038 34.1658 87.26 34.541 88.2042 34.9526C89.1483 35.3399 90.0198 35.812 90.8187 36.3688C91.6418 36.9013 92.2954 37.5792 92.7796 38.4023C93.2637 39.2254 93.5058 40.2421 93.5058 41.4526C93.5058 43.244 93.0338 44.7449 92.0896 45.9553C91.1455 47.1416 89.8261 48.0373 88.1315 48.6425C86.4611 49.2477 84.5002 49.5503 82.2488 49.5503ZM111.925 49.3324C112.046 48.6788 112.192 47.7468 112.361 46.5364C112.555 45.3259 112.724 43.9581 112.869 42.433C113.039 40.9079 113.16 39.3222 113.232 37.676C113.329 36.0056 113.341 34.3958 113.269 32.8464C113.22 31.2729 113.075 29.8567 112.833 28.5978C112.591 27.339 112.204 26.3464 111.671 25.6202C111.163 24.8697 110.497 24.4945 109.674 24.4945C108.778 24.4945 108.028 24.8818 107.422 25.6565C106.817 26.4311 106.321 27.4842 105.934 28.8157C105.57 30.1229 105.304 31.6118 105.135 33.2822C104.965 34.9526 104.868 36.6956 104.844 38.5112C104.844 40.3026 104.893 42.0699 104.989 43.8129C105.086 45.5559 105.219 47.1416 105.389 48.5699L96.9643 49.4051C96.698 45.338 96.7223 41.5978 97.037 38.1844C97.3517 34.7468 97.9932 31.7691 98.9615 29.2514C99.9541 26.7337 101.322 24.785 103.065 23.4051C104.808 22.0252 106.975 21.3352 109.565 21.3352C111.962 21.3352 113.922 22.0373 115.448 23.4414C116.973 24.8213 118.111 26.758 118.861 29.2514C119.636 31.7449 120.059 34.6499 120.132 37.9665C120.229 41.2589 120.011 44.8175 119.478 48.6425L111.925 49.3324ZM99.4336 42.9414L100.814 38.6928C102.29 39.2012 103.779 39.5522 105.28 39.7459C106.781 39.9153 108.246 39.9758 109.674 39.9274C111.126 39.879 112.506 39.7822 113.814 39.6369C115.121 39.4917 116.319 39.3343 117.408 39.1648L117.772 41.9246C116.174 42.554 114.37 42.9898 112.361 43.2319C110.352 43.474 108.246 43.5587 106.043 43.4861C103.84 43.3892 101.637 43.2077 99.4336 42.9414Z" fill="white"/>
<path d="M23.9658 92.0164V69.3572H28.2507V84.5359L51.491 69.2119H59.4072L23.9658 92.0164Z" fill="white"/>
<path fill-rule="evenodd" clip-rule="evenodd" d="M112.425 0H17.5754C7.86879 0 0 7.86877 0 17.5754V52.4358C0 62.1424 7.86876 70.0112 17.5754 70.0112H28.3241V69.9385V64.9274H17.5754C10.6765 64.9274 5.0838 59.3347 5.0838 52.4358V17.5754C5.0838 10.6765 10.6765 5.0838 17.5754 5.0838H112.425C119.324 5.0838 124.916 10.6765 124.916 17.5754V52.4358C124.916 59.3347 119.324 64.9274 112.425 64.9274H58.1691L50.139 70.0112H112.425C122.131 70.0112 130 62.1424 130 52.4358V17.5754C130 7.86879 122.131 0 112.425 0Z" fill="white"/>
</svg>
