<svg width="895" height="635" viewBox="0 0 895 635" fill="none" xmlns="http://www.w3.org/2000/svg">
<rect x="333.5" y="191.25" width="44" height="36" stroke="#D61F3B" stroke-width="3"/>
<path d="M356 142.75C303.2 174.35 295.667 235.583 298.5 261.75V267.25L288.5 276.25H260L277.5 261.75C267.1 183.35 325.5 149.417 356 142.75Z" fill="#D61F3B"/>
<path d="M356.5 142.75C409.3 174.468 416.833 235.931 414 262.196V267.716L424 276.75H452.5L435 262.196C445.4 183.502 387 149.442 356.5 142.75Z" fill="#D61F3B"/>
<rect x="296.5" y="260.75" width="120" height="7" fill="#D61F3B"/>
<rect x="300.5" y="267.75" width="15" height="64" fill="#D61F3B"/>
<rect x="299.5" y="328.75" width="18" height="6" fill="#D61F3B"/>
<rect x="297.5" y="330.75" width="22" height="6" fill="#D61F3B"/>
<rect x="396.5" y="266.75" width="15" height="64" fill="#D61F3B"/>
<rect x="395.5" y="327.75" width="18" height="6" fill="#D61F3B"/>
<rect x="393.5" y="329.75" width="22" height="6" fill="#D61F3B"/>
<rect x="305.5" y="304.75" width="104" height="9" fill="#D61F3B"/>
<rect x="296.5" y="304.75" width="8" height="5" fill="#D61F3B"/>
<rect x="298.5" y="308.75" width="5" height="2" fill="#D61F3B"/>
<rect x="299.5" y="310.75" width="5" height="2" fill="#D61F3B"/>
<rect x="409.5" y="304.75" width="6" height="5" fill="#D61F3B"/>
<rect x="407.5" y="305.75" width="6" height="6" fill="#D61F3B"/>
<rect x="405.5" y="306.75" width="7" height="6" fill="#D61F3B"/>
<path d="M75.25 342.5C76.0833 320.167 76.4167 298.917 76.25 278.75C76.25 258.417 75.5833 238.167 74.25 218C73.0833 197.833 71.25 176.833 68.75 155L129.5 147.75C130 164.417 130.083 180.333 129.75 195.5C129.583 210.5 129 225.333 128 240C127 254.667 125.75 269.75 124.25 285.25C122.75 300.75 120.917 317.333 118.75 335L75.25 342.5ZM118.75 335L117.75 274.5C119.75 265 123 255.083 127.5 244.75C132.167 234.417 137.917 224.25 144.75 214.25C151.75 204.25 159.667 195 168.5 186.5C177.333 177.833 186.917 170.417 197.25 164.25C207.75 158.083 218.917 153.75 230.75 151.25L233 204C218.5 205.333 204.833 209.083 192 215.25C179.333 221.25 167.917 229.75 157.75 240.75C147.583 251.75 139.083 265.083 132.25 280.75C125.583 296.417 121.083 314.5 118.75 335ZM175.75 338.75C175.417 329.417 174.083 320.5 171.75 312C169.417 303.5 166.417 295.833 162.75 289C159.083 282 154.833 276.167 150 271.5C145.167 266.833 140 263.75 134.5 262.25L151.75 233.25C159.75 235.75 168.167 239.333 177 244C185.833 248.5 194.25 254.5 202.25 262C210.25 269.5 217.333 278.917 223.5 290.25C229.667 301.417 234.167 315 237 331L175.75 338.75Z" fill="black"/>
<path d="M566.25 341.5C553.917 341.5 540.833 340.417 527 338.25C513.167 335.917 499.167 332.75 485 328.75L491.5 287C499.333 290.667 506.75 293.917 513.75 296.75C520.917 299.417 527.833 301.5 534.5 303C541.167 304.333 547.667 305 554 305C559.667 305 564.583 303.833 568.75 301.5C573.083 299.167 576.5 296.083 579 292.25C581.5 288.25 582.75 284 582.75 279.5C582.75 274.5 581.167 270.167 578 266.5C574.833 262.667 570.667 259.25 565.5 256.25C560.333 253.25 554.667 250.417 548.5 247.75C542.333 244.917 536.083 242 529.75 239C523.583 235.833 517.917 232.333 512.75 228.5C507.583 224.5 503.417 219.917 500.25 214.75C497.083 209.583 495.5 203.417 495.5 196.25C495.5 187.583 497.583 180.167 501.75 174C505.917 167.667 511.5 162.5 518.5 158.5C525.667 154.5 533.583 151.583 542.25 149.75C551.083 147.75 560.083 146.75 569.25 146.75C581.083 146.75 592.5 148.25 603.5 151.25C614.5 154.083 623.5 158.167 630.5 163.5L622.25 190.5C614.917 186 607.75 182.417 600.75 179.75C593.75 177.083 586.667 175.75 579.5 175.75C571.167 175.75 564.5 177.667 559.5 181.5C554.667 185.333 552.167 190.5 552 197C551.833 203.667 553.333 209.25 556.5 213.75C559.833 218.083 564.167 221.833 569.5 225C575 228 581 230.75 587.5 233.25C594.167 235.583 600.75 238.167 607.25 241C613.75 243.667 619.75 246.917 625.25 250.75C630.917 254.417 635.417 259.083 638.75 264.75C642.083 270.417 643.75 277.417 643.75 285.75C643.75 298.083 640.5 308.417 634 316.75C627.5 324.917 618.417 331.083 606.75 335.25C595.25 339.417 581.75 341.5 566.25 341.5ZM770.561 340C771.394 335.5 772.394 329.083 773.561 320.75C774.894 312.417 776.061 303 777.061 292.5C778.227 282 779.061 271.083 779.561 259.75C780.227 248.25 780.311 237.167 779.811 226.5C779.477 215.667 778.477 205.917 776.811 197.25C775.144 188.583 772.477 181.75 768.811 176.75C765.311 171.583 760.727 169 755.061 169C748.894 169 743.727 171.667 739.561 177C735.394 182.333 731.977 189.583 729.311 198.75C726.811 207.75 724.977 218 723.811 229.5C722.644 241 721.977 253 721.811 265.5C721.811 277.833 722.144 290 722.811 302C723.477 314 724.394 324.917 725.561 334.75L667.561 340.5C665.727 312.5 665.894 286.75 668.061 263.25C670.227 239.583 674.644 219.083 681.311 201.75C688.144 184.417 697.561 171 709.561 161.5C721.561 152 736.477 147.25 754.311 147.25C770.811 147.25 784.311 152.083 794.811 161.75C805.311 171.25 813.144 184.583 818.311 201.75C823.644 218.917 826.561 238.917 827.061 261.75C827.727 284.417 826.227 308.917 822.561 335.25L770.561 340ZM684.561 296L694.061 266.75C704.227 270.25 714.477 272.667 724.811 274C735.144 275.167 745.227 275.583 755.061 275.25C765.061 274.917 774.561 274.25 783.561 273.25C792.561 272.25 800.811 271.167 808.311 270L810.811 289C799.811 293.333 787.394 296.333 773.561 298C759.727 299.667 745.227 300.25 730.061 299.75C714.894 299.083 699.727 297.833 684.561 296Z" fill="black"/>
<path d="M165 634.25V478.25H194.5V582.75L354.5 477.25H409L165 634.25Z" fill="#D61F3B"/>
<path fill-rule="evenodd" clip-rule="evenodd" d="M774 0.75H121C54.1735 0.75 0 54.9235 0 121.75V361.75C0 428.576 54.1736 482.75 121 482.75H195V482.25V447.75H121C73.5035 447.75 35 409.246 35 361.75V121.75C35 74.2535 73.5035 35.75 121 35.75H774C821.496 35.75 860 74.2535 860 121.75V361.75C860 409.246 821.496 447.75 774 447.75H400.472L345.188 482.75H774C840.826 482.75 895 428.576 895 361.75V121.75C895 54.9235 840.826 0.75 774 0.75Z" fill="#D61F3B"/>
</svg>
